<svg width="158" height="24" viewBox="0 0 158 24" fill="none" xmlns="http://www.w3.org/2000/svg">
<path d="M11.7578 15.8396L2.29893 0.366699H0.54834V23.6891H3.03305V5.78788L10.8542 18.6349H12.6048L20.426 5.78788V23.6891H22.9389V0.366699H21.1883L11.7578 15.8396Z" fill="white"/>
<path d="M36.4916 0.366699L27.1458 23.6891H29.7999L37.3952 4.37611L44.934 23.6891H47.6446L38.3552 0.366699H36.4916Z" fill="white"/>
<path d="M67.2674 18.8891L53.6297 0.366699H51.8792V23.6891H54.3639V5.1667L68.0015 23.6891H69.7803V0.366699H67.2674V18.8891Z" fill="white"/>
<path d="M78.1956 0.366699H75.7109V23.6891H78.1956V0.366699Z" fill="white"/>
<path d="M85.7614 0.366699H84.1238V23.6891H86.6085V13.1291H98.2697V10.8702H86.6085V2.62552H98.8344V0.366699H86.6085H85.7614Z" fill="white"/>
<path d="M105.81 12.8467H117.612V10.6443H105.81V2.62552H118.488V0.366699H105.81H104.963H103.354V23.6891H104.963H105.81H118.685V21.402H105.81V12.8467Z" fill="white"/>
<path d="M134.44 12.5929C133.762 12.0847 133 11.6329 132.153 11.2941C131.306 10.9553 130.487 10.6447 129.668 10.3624C128.849 10.08 128.087 9.76941 127.381 9.40236C126.675 9.0353 126.11 8.58353 125.715 8.04706C125.292 7.51059 125.094 6.80471 125.094 5.90118C125.094 4.77177 125.489 3.89647 126.308 3.24706C127.127 2.62588 128.2 2.28706 129.555 2.28706C130.713 2.28706 131.701 2.51294 132.576 2.96471C133.452 3.41647 134.214 4.06588 134.948 4.94118L136.642 3.24706C135.852 2.25882 134.863 1.46824 133.678 0.875294C132.492 0.282353 131.136 0 129.64 0C128.285 0 127.07 0.254118 126.026 0.734118C124.953 1.21412 124.134 1.92 123.513 2.82353C122.892 3.72706 122.609 4.8 122.609 6.07059C122.609 7.25647 122.807 8.24471 123.23 9.00706C123.654 9.76941 124.219 10.4188 124.896 10.8988C125.602 11.4071 126.365 11.8024 127.183 12.1412C128.002 12.48 128.849 12.7906 129.668 13.0729C130.515 13.3553 131.277 13.6941 131.955 14.0612C132.633 14.4282 133.197 14.9082 133.621 15.5294C134.045 16.1506 134.27 16.8847 134.27 17.8165C134.27 19.0024 133.819 19.9624 132.887 20.64C131.955 21.3177 130.741 21.6565 129.273 21.6565C127.805 21.6565 126.59 21.3741 125.517 20.8377C124.445 20.3012 123.541 19.4824 122.75 18.3529L121.028 20.0471C122.016 21.2894 123.174 22.2494 124.473 22.9553C125.772 23.6329 127.353 24 129.16 24C131.503 24 133.367 23.4353 134.722 22.3341C136.077 21.2047 136.783 19.6518 136.783 17.6471C136.783 16.4047 136.557 15.3882 136.134 14.5694C135.71 13.7788 135.146 13.1012 134.468 12.5929H134.44Z" fill="white"/>
<path d="M157.452 0.366699H138.562V2.62552H146.75V23.6891H149.263V2.62552H157.452V0.366699Z" fill="white"/>
</svg>
