<svg width="18" height="14" viewBox="0 0 18 14" fill="none" xmlns="http://www.w3.org/2000/svg">
<path d="M11.845 1.13301C11.65 0.938005 11.333 0.938005 11.138 1.13301C10.943 1.32801 10.943 1.64501 11.138 1.84001L16.295 6.997H0.498047C0.222047 6.997 -0.00195312 7.221 -0.00195312 7.497C-0.00195312 7.77301 0.222047 7.997 0.498047 7.997H16.295L11.138 13.154C10.943 13.349 10.943 13.666 11.138 13.861C11.236 13.959 11.364 14.007 11.492 14.007C11.62 14.007 11.748 13.958 11.846 13.861L17.857 7.85001C17.951 7.75601 18.003 7.62901 18.003 7.49601C18.003 7.36301 17.95 7.23601 17.857 7.14201L11.846 1.13201L11.845 1.13301Z" fill="white"/>
</svg>
