<svg width="20" height="19" viewBox="0 0 20 19" fill="none" xmlns="http://www.w3.org/2000/svg">
<path d="M18.611 17.2527H16.987L16.663 15.6337L17.519 14.3487C17.71 14.0617 17.632 13.6737 17.345 13.4817C17.057 13.2887 16.67 13.3677 16.478 13.6547L15.716 14.7977L15.978 12.7037C16.037 12.2417 15.893 11.7767 15.584 11.4267C15.275 11.0767 14.831 10.8767 14.365 10.8767H12.631C12.165 10.8767 11.721 11.0777 11.412 11.4267C11.103 11.7757 10.96 12.2417 11.018 12.7027L11.28 14.7967L10.518 13.6537C10.326 13.3667 9.938 13.2897 9.651 13.4807C9.364 13.6717 9.286 14.0607 9.477 14.3477L10.333 15.6327L10.009 17.2517H6.827L10.736 8.47366L18.5 11.9307L18.806 11.2457C20.32 7.84566 17.76 3.39166 13.101 1.31666C8.447 -0.756338 3.421 0.321662 1.907 3.72166L1.602 4.40666L9.367 7.86466L5.198 17.2277C5.194 17.2357 5.196 17.2447 5.192 17.2527H1.5C1.086 17.2527 0.75 17.5887 0.75 18.0027C0.75 18.4167 1.086 18.7527 1.5 18.7527H18.611C19.025 18.7527 19.361 18.4167 19.361 18.0027C19.361 17.5887 19.025 17.2527 18.611 17.2527ZM12.494 2.68766C13.225 3.01366 13.534 5.00466 12.546 7.63666L8.78 5.95966C10.075 3.46366 11.757 2.35966 12.494 2.68666V2.68766ZM17.671 9.91866L13.918 8.24766C14.524 6.66266 14.756 5.16066 14.634 3.94566C16.872 5.62466 18.092 7.94166 17.671 9.91866ZM10.117 1.94666C9.136 2.67066 8.179 3.84466 7.409 5.34966L3.656 3.67866C4.841 2.04466 7.376 1.41066 10.117 1.94666ZM12.352 12.2547C12.394 12.2077 12.486 12.1277 12.633 12.1277H14.367C14.514 12.1277 14.606 12.2077 14.648 12.2547C14.69 12.3017 14.757 12.4027 14.739 12.5487L14.448 14.8777H12.551L12.26 12.5487C12.241 12.4027 12.309 12.3017 12.351 12.2547H12.352ZM11.513 16.1277H15.488L15.713 17.2527H11.289L11.514 16.1277H11.513Z" fill="white"/>
</svg>
