<svg width="20" height="14" viewBox="0 0 20 14" fill="none" xmlns="http://www.w3.org/2000/svg">
<path d="M18.5 6.25H1.5C1.09 6.25 0.75 6.59 0.75 7C0.75 7.41 1.09 7.75 1.5 7.75H18.5C18.91 7.75 19.25 7.41 19.25 7C19.25 6.59 18.91 6.25 18.5 6.25Z" fill="white"/>
<path d="M18.5 12.26H1.5C1.09 12.26 0.75 12.6 0.75 13.01C0.75 13.42 1.09 13.76 1.5 13.76H18.5C18.91 13.76 19.25 13.42 19.25 13.01C19.25 12.6 18.91 12.26 18.5 12.26Z" fill="white"/>
<path d="M1.5 1.74H18.5C18.91 1.74 19.25 1.4 19.25 0.989998C19.25 0.579998 18.91 0.239998 18.5 0.239998H1.5C1.09 0.239998 0.75 0.579998 0.75 0.989998C0.75 1.4 1.09 1.74 1.5 1.74Z" fill="white"/>
</svg>
