<svg width="14" height="14" viewBox="0 0 14 14" fill="none" xmlns="http://www.w3.org/2000/svg">
<path d="M8.05993 6.99877L13.5399 1.51877C13.8299 1.22877 13.8299 0.748772 13.5399 0.458772C13.2499 0.168772 12.7699 0.168772 12.4799 0.458772L6.99993 5.93877L1.51993 0.458772C1.22993 0.168772 0.749932 0.168772 0.459932 0.458772C0.169932 0.748772 0.169932 1.22877 0.459932 1.51877L5.93993 6.99877L0.459932 12.4788C0.169932 12.7688 0.169932 13.2488 0.459932 13.5388C0.609932 13.6888 0.799932 13.7588 0.989932 13.7588C1.17993 13.7588 1.36993 13.6888 1.51993 13.5388L6.99993 8.05877L12.4799 13.5388C12.6299 13.6888 12.8199 13.7588 13.0099 13.7588C13.1999 13.7588 13.3899 13.6888 13.5399 13.5388C13.8299 13.2488 13.8299 12.7688 13.5399 12.4788L8.05993 6.99877Z" fill="#343434"/>
</svg>
