<svg width="18" height="16" viewBox="0 0 18 16" fill="none" xmlns="http://www.w3.org/2000/svg">
<path d="M13.248 0.255371C11.976 0.255371 10.779 0.753371 9.88105 1.65637L8.99905 2.53837L8.10605 1.64637C7.21005 0.749371 6.01705 0.255371 4.74805 0.255371C2.12905 0.255371 -0.00195312 2.38637 -0.00195312 5.00537C-0.00195312 6.10637 0.393047 7.17637 1.11105 8.03637C1.13605 8.09337 1.17205 8.14537 1.21605 8.19037L8.63905 15.6134C8.73305 15.7074 8.86005 15.7594 8.99305 15.7594C9.12605 15.7594 9.25305 15.7064 9.34705 15.6134L16.769 8.19137C16.806 8.15437 16.835 8.11337 16.858 8.06837C17.594 7.20437 17.999 6.12137 17.999 5.00537C17.999 2.38637 15.868 0.255371 13.249 0.255371H13.248ZM16.028 7.49737C16.007 7.52037 15.989 7.54537 15.973 7.57237L8.99305 14.5534L2.03405 7.59537C2.01505 7.55937 1.99305 7.52637 1.96605 7.49537C1.34205 6.79837 0.998047 5.91437 0.998047 5.00537C0.998047 2.93737 2.68105 1.25537 4.74805 1.25537C5.75005 1.25537 6.69105 1.64537 7.39905 2.35337L8.64505 3.59937C8.83305 3.78737 9.16505 3.78737 9.35205 3.59937L10.588 2.36237C11.298 1.64837 12.242 1.25537 13.247 1.25537C15.314 1.25537 16.997 2.93737 16.997 5.00537C16.997 5.91637 16.652 6.80137 16.027 7.49737H16.028Z"/>
</svg>
