<svg width="22" height="17" viewBox="0 0 22 17" fill="none" xmlns="http://www.w3.org/2000/svg">
<path d="M2.50004 14.7499C2.08604 14.7499 1.75004 15.0859 1.75004 15.4999C1.75004 15.9139 2.08604 16.2499 2.50004 16.2499H19.5C19.914 16.2499 20.25 15.9139 20.25 15.4999C20.25 15.0859 19.914 14.7499 19.5 14.7499H2.50004Z" fill="white"/>
<path d="M20.93 2.94993C21.131 2.42893 21.076 1.85893 20.779 1.38693C20.482 0.914925 19.991 0.618925 19.433 0.574925L18.396 0.494925C17.594 0.436925 16.784 0.636925 16.106 1.06793L13.842 2.50693L6.57104 0.662925C5.96304 0.519925 5.31704 0.640925 4.76904 1.01293L2.71804 2.55193C2.51004 2.70693 2.39804 2.95993 2.42104 3.21893C2.44404 3.47793 2.60004 3.70493 2.83204 3.82293L7.82804 6.32793L6.31504 7.28892L3.56304 6.42793C3.35004 6.36193 3.12204 6.39292 2.93704 6.51092L1.29704 7.55493C1.10704 7.67593 0.98204 7.87493 0.95404 8.09893C0.92804 8.32193 1.00304 8.54493 1.15804 8.70693L4.33804 12.0179C4.48004 12.1649 4.67504 12.2479 4.87904 12.2479L8.58304 12.2499C8.72604 12.2499 8.86504 12.2089 8.98504 12.1329L19.073 5.72092C19.756 5.28592 20.27 4.65893 20.56 3.90493L20.927 2.95093L20.93 2.94993ZM19.531 2.40993L19.163 3.36493C18.989 3.81693 18.681 4.19393 18.271 4.45493L8.36804 10.7499L5.20104 10.7479L2.87704 8.32793L3.45004 7.96392L6.20204 8.82393C6.41104 8.88793 6.64004 8.85893 6.82804 8.74093L9.75304 6.88392C9.98104 6.73892 10.113 6.48393 10.1 6.21293C10.087 5.94193 9.92904 5.70092 9.68704 5.57993L4.58904 3.02393L5.64104 2.23393C5.81204 2.11693 6.02704 2.07793 6.21804 2.12093L13.787 4.04093C13.986 4.09193 14.2 4.05793 14.374 3.94693L16.911 2.33393C17.316 2.07593 17.801 1.94593 18.281 1.99093L19.318 2.07093C19.426 2.07893 19.485 2.14693 19.509 2.18593C19.534 2.22593 19.572 2.30693 19.531 2.40993Z" fill="white"/>
</svg>
