<svg width="20" height="18" viewBox="0 0 20 18" fill="none" xmlns="http://www.w3.org/2000/svg">
<path d="M19.0551 10.1499C20.3261 9.92488 20.3351 8.33988 18.9631 8.28888C17.5911 8.23888 17.5081 8.91188 16.7401 8.17488C15.9711 7.43788 17.9341 4.74788 15.8941 4.87188C14.0201 4.98688 14.6221 10.5529 12.4531 9.62288C11.3841 9.16488 12.2851 7.54488 13.1311 4.86488C13.6151 3.33388 13.2481 2.22188 12.4571 2.19388C11.3721 2.15588 11.4721 4.83188 10.5821 5.00388C9.99406 5.11788 8.74406 1.60588 7.51906 2.42888C6.77806 2.92688 7.37906 4.38088 8.26106 5.74688C9.14306 7.11288 9.86106 9.27788 8.19406 9.37988C6.52706 9.48188 6.17006 7.39688 5.77806 5.42288C5.38606 3.44888 3.77206 3.58188 3.39506 4.64488C2.99506 5.77188 4.89106 7.70488 4.59706 8.23888C4.18306 8.98788 1.41006 6.65588 0.840059 8.04388C0.235059 9.51688 3.20906 9.73888 3.30606 10.5239C3.44706 11.6689 1.46206 10.8349 0.506059 11.1949C-0.236941 11.4749 -0.495941 13.1749 2.10106 13.2149C5.93306 13.2719 5.67806 15.6729 7.32806 16.7179C8.56306 17.7239 10.9651 18.1209 12.5611 17.3129C10.2521 17.2509 7.32006 15.2809 7.26206 14.2399C7.15206 12.2909 9.97506 14.8649 10.6051 13.9069C11.0271 13.2639 10.1571 12.5909 10.0721 11.2819C9.98606 9.97288 11.3981 9.82988 11.7191 11.0149C12.2371 12.9189 13.5741 13.3209 13.5801 12.6539C13.6031 10.2389 15.2621 10.3649 15.3851 12.6309C15.4141 13.1619 15.4431 13.6649 15.4321 14.1409C15.9341 14.0389 16.4471 14.0049 16.9581 14.0379C19.3301 14.1559 19.6611 12.1989 17.1491 11.9009C16.4571 11.8189 17.0141 10.5079 19.0541 10.1479L19.0551 10.1499Z" fill="white"/>
<path d="M18.7381 6.69588C19.1981 6.67988 19.5581 6.29488 19.5431 5.83488C19.5281 5.38588 19.1601 5.02988 18.7111 5.02988C18.2431 5.03788 17.8701 5.42288 17.8781 5.89088C17.8931 6.35088 18.2781 6.71088 18.7381 6.69588Z" fill="white"/>
<path d="M5.67406 0.254883C5.29106 0.261883 4.98606 0.576883 4.99206 0.959883C5.00506 1.33688 5.32006 1.63188 5.69706 1.61988C6.07406 1.60788 6.36906 1.29188 6.35706 0.914883C6.34506 0.546883 6.04306 0.254883 5.67506 0.254883H5.67406Z" fill="white"/>
</svg>
