<svg width="20" height="21" viewBox="0 0 20 21" fill="none" xmlns="http://www.w3.org/2000/svg">
<path d="M15.5363 19.1729C15.3563 19.1729 15.1563 19.1529 14.9463 19.1029C14.9063 19.0929 14.8563 19.0829 14.8163 19.0629L1.10629 13.1829C1.10629 13.1829 1.02629 13.1429 0.986294 13.1229C0.876294 13.0529 0.326294 12.6329 0.326294 11.6329C0.326294 10.6929 0.916294 10.0829 0.986294 10.0129C1.03629 9.96287 1.08629 9.92287 1.14629 9.89287L17.0263 0.852873C17.0263 0.852873 17.1263 0.802873 17.1863 0.782873C17.7863 0.602873 19.0563 0.592873 19.6063 1.85287C19.6663 1.98287 19.6863 2.12287 19.6663 2.26287L17.4863 17.4929C17.4663 17.6029 17.3163 18.3929 16.6263 18.8529C16.3863 19.0129 16.0363 19.1629 15.5363 19.1629V19.1729ZM15.3363 17.6529C15.4863 17.6829 15.6663 17.6929 15.7863 17.6129C15.9263 17.5229 15.9963 17.3229 16.0063 17.2529L18.1363 2.32287C17.9863 2.17287 17.7863 2.19287 17.6763 2.21287L1.99629 11.1229C1.92629 11.2129 1.82629 11.4029 1.82629 11.6229C1.82629 11.7529 1.84629 11.8329 1.86629 11.8729L15.3363 17.6429V17.6529Z" fill="white"/>
<path d="M8.03629 20.2029C6.87629 20.2029 6.17629 19.3029 5.93629 18.7829C5.89629 18.6929 5.87629 18.5929 5.87629 18.5029L5.76629 14.6929C5.76629 14.5029 5.82629 14.3129 5.96629 14.1629L17.5263 1.45287C17.8063 1.14287 18.2763 1.12287 18.5863 1.40287C18.8963 1.68287 18.9163 2.15287 18.6363 2.46287L7.27629 14.9529L7.36629 18.2729C7.46629 18.4329 7.69629 18.7029 8.03629 18.7029C8.55629 18.7029 8.79629 18.3229 8.79629 18.3229C8.81629 18.2929 8.83629 18.2629 8.85629 18.2329L10.3763 16.2729C10.6263 15.9429 11.0963 15.8829 11.4263 16.1429C11.7563 16.3929 11.8163 16.8729 11.5563 17.1929L10.0563 19.1129C9.78629 19.5429 9.09629 20.2029 8.02629 20.2029H8.03629Z" fill="white"/>
</svg>
