<svg width="20" height="14" viewBox="0 0 20 14" fill="none" xmlns="http://www.w3.org/2000/svg">
<path d="M12.871 12.7808C13.668 12.7808 14.432 12.7838 15.195 12.7738C15.249 12.7738 15.324 12.6768 15.353 12.6098C16.862 9.04476 18.37 5.47876 19.877 1.91176C19.912 1.82876 19.953 1.74576 19.999 1.61976C19.887 1.61976 19.777 1.62076 19.699 1.62076C19.128 1.62076 18.224 1.62476 17.647 1.61276C17.647 1.61276 17.618 1.68976 17.518 1.92276C16.136 5.15176 14.753 8.37976 13.368 11.6068C13.204 11.9888 13.044 12.3728 12.871 12.7808Z" fill="white"/>
<path d="M9.76399 11.7498L8.04099 10.0268C8.01699 10.0468 7.98799 10.0698 7.94499 10.1018C6.71199 11.0018 5.02699 10.9538 3.84599 9.98676C2.52899 8.90276 2.18899 6.75876 3.10199 5.26376C3.13099 5.21676 3.15399 5.18376 3.17299 5.15876L1.39499 3.38076C-0.37201 5.29676 -0.64501 8.99776 1.65999 11.2938C4.04499 13.6688 7.77799 13.4168 9.76399 11.7498Z" fill="white"/>
<path d="M3.83199 4.05476C4.92699 3.20076 6.43599 3.11176 7.62299 3.83176C8.93999 4.64676 9.51699 6.20976 9.21499 7.83876C9.14299 8.29376 9.00299 8.73476 8.79999 9.14776L10.565 10.9518C12.226 9.13476 12.663 5.28576 10.3 2.81076C7.91199 0.310756 4.07999 0.555756 2.10099 2.29776L3.82499 4.06076L3.83199 4.05476Z" fill="white"/>
<path d="M15.576 3.53976L16.394 1.63376H12.062C12.062 2.24076 12.059 2.94476 12.069 3.53976C12.069 3.53976 14.381 3.54476 15.576 3.53976Z" fill="white"/>
</svg>
