<svg width="18" height="18" viewBox="0 0 18 18" fill="none" xmlns="http://www.w3.org/2000/svg">
<path d="M9.00198 0L8.08198 1.412L7.16298 2.831C8.36598 2.502 9.63598 2.499 10.84 2.824L9.00198 0Z" fill="white"/>
<path d="M12.352 4.386C11.59 4.057 10.782 3.846 9.95598 3.758L13.036 8.505C12.345 8.308 11.64 8.166 10.927 8.08L14.993 14.344C14.279 14.141 13.554 13.977 12.822 13.854L15.512 17.991C16.104 17.297 16.59 16.518 16.952 15.681C17.862 13.542 17.862 11.124 16.952 8.985C16.073 6.914 14.423 5.265 12.352 4.386Z" fill="white"/>
<path d="M2.89298 6.243C0.409977 8.721 -0.321023 12.458 1.04598 15.689C1.40198 16.53 1.88698 17.309 2.48398 18L5.17298 13.862C4.44198 13.976 3.71898 14.137 3.00798 14.343L7.06998 8.087C6.35798 8.167 5.65498 8.306 4.96598 8.503L8.04698 3.759C7.22398 3.846 6.41898 4.058 5.65898 4.387C4.62998 4.829 3.69198 5.458 2.89298 6.243Z" fill="white"/>
</svg>
