<svg width="20" height="21" viewBox="0 0 20 21" fill="none" xmlns="http://www.w3.org/2000/svg">
<path d="M12.202 12H7.799C5.704 12 4 13.704 4 15.798C4 16.074 4.224 16.298 4.5 16.298C4.776 16.298 5 16.074 5 15.798C5 14.255 6.256 13 7.799 13H12.202C13.745 13 15 14.255 15 15.798C15 16.074 15.224 16.298 15.5 16.298C15.776 16.298 16 16.074 16 15.798C16 13.704 14.296 12 12.202 12Z" fill="white"/>
<path d="M10 11C11.93 11 13.5 9.43 13.5 7.5C13.5 5.57 11.93 4 10 4C8.07 4 6.5 5.57 6.5 7.5C6.5 9.43 8.07 11 10 11ZM10 5C11.379 5 12.5 6.122 12.5 7.5C12.5 8.878 11.379 10 10 10C8.621 10 7.5 8.878 7.5 7.5C7.5 6.122 8.621 5 10 5Z" fill="white"/>
<path d="M10 0.5C4.486 0.5 0 4.986 0 10.5C0 16.014 4.486 20.5 10 20.5C15.514 20.5 20 16.014 20 10.5C20 4.986 15.513 0.5 10 0.5ZM10 19.5C5.037 19.5 1 15.462 1 10.5C1 5.538 5.037 1.5 10 1.5C14.963 1.5 19 5.538 19 10.5C19 15.462 14.963 19.5 10 19.5Z" fill="white"/>
</svg>
